<svg width="68" height="29" viewBox="0 0 68 29" fill="none" xmlns="http://www.w3.org/2000/svg">
<path d="M10.0547 28.3907C7.00787 28.3907 4.65761 27.5443 3.00397 25.8516C1.35032 24.1459 0.523499 21.7631 0.523499 18.7032H4.586C4.586 20.6563 5.06777 22.1732 6.03131 23.254C7.00787 24.3347 8.38157 24.8751 10.1524 24.8751C11.8712 24.8751 13.1928 24.3412 14.1172 23.2735C15.0547 22.1928 15.5235 20.6693 15.5235 18.7032V0.265686H19.586V18.7032C19.586 21.7761 18.7462 24.1589 17.0665 25.8516C15.3868 27.5443 13.0495 28.3907 10.0547 28.3907ZM8.41412 3.97662V0.265686H17.5157V3.97662H8.41412ZM34.0001 28.3907C33.2058 28.3907 32.5222 28.1107 31.9493 27.5508C31.3894 26.9779 31.1094 26.2943 31.1094 25.5001C31.1094 24.6928 31.3894 24.0092 31.9493 23.4493C32.5222 22.8894 33.2058 22.6094 34.0001 22.6094C34.8074 22.6094 35.4909 22.8894 36.0508 23.4493C36.6107 24.0092 36.8907 24.6928 36.8907 25.5001C36.8907 26.2943 36.6107 26.9779 36.0508 27.5508C35.4909 28.1107 34.8074 28.3907 34.0001 28.3907ZM49.2344 28.0001V0.265686H53.2969V28.0001H49.2344ZM49.2344 17.1407V13.4297H64.0782V17.1407H49.2344ZM49.2344 3.97662V0.265686H67.5938V3.97662H49.2344Z" fill="white"/>
</svg>
